<svg width="300" height="200" version="1.1" viewBox="0 0 79.375 52.917" xmlns="http://www.w3.org/2000/svg">
 <g fill="#fff" stroke="#000">
  <path d="m4.4964 3.9672h70.382a0.52919 0.51694 0 0 1 0.52919 0.51694v36.444a0.52919 0.51694 0 0 1-0.52919 0.51694h-32.016a0.73421 0.71721 0 0 0-0.69653 0.49041l-2.3113 6.7732a0.1764 0.17231 0 0 1-0.33469 0l-2.3113-6.7732a0.73421 0.71721 0 0 0-0.69653-0.49041h-32.016a0.52919 0.51694 0 0 1-0.52919-0.51694v-36.444a0.52919 0.51694 0 0 1 0.52919-0.51694z" stroke-linejoin="round" stroke-width=".26193"/>
  <rect x="7.9375" y="7.9375" width="6.6146" height="6.6146" stroke-width=".2"/>
  <rect x="19.844" y="7.9375" width="51.594" height="6.6146" stroke-width=".20262"/>
  <rect x="7.9375" y="18.521" width="63.5" height="18.521" stroke-width=".22563"/>
  <rect x="27.781" y="33.073" width="23.812" height="2.6458" stroke-width=".2"/>
 </g>
</svg>
